<svg width="332" height="30" viewBox="0 0 332 30" fill="none" xmlns="http://www.w3.org/2000/svg">
<circle cx="116" cy="15" r="15" fill="#FCFCFC"/>
<path d="M114.313 11.875V10.523H117.017V20H115.522V11.875H114.313Z" fill="black"/>
<path d="M136 15H146" stroke="#F7F7F8" stroke-width="1.5" stroke-linecap="round" stroke-linejoin="round"/>
<circle cx="166" cy="15" r="15" fill="#404040"/>
<path d="M163.848 17.985C164.68 17.2657 165.334 16.6763 165.811 16.217C166.296 15.749 166.699 15.2637 167.02 14.761C167.34 14.2583 167.501 13.7557 167.501 13.253C167.501 12.733 167.375 12.3257 167.124 12.031C166.881 11.7363 166.495 11.589 165.967 11.589C165.455 11.589 165.057 11.7537 164.771 12.083C164.493 12.4037 164.346 12.837 164.329 13.383H162.899C162.925 12.395 163.219 11.641 163.783 11.121C164.355 10.5923 165.078 10.328 165.954 10.328C166.898 10.328 167.635 10.588 168.164 11.108C168.701 11.628 168.97 12.3213 168.97 13.188C168.97 13.812 168.809 14.4143 168.489 14.995C168.177 15.567 167.8 16.0827 167.358 16.542C166.924 16.9927 166.37 17.517 165.694 18.115L165.109 18.635H169.23V19.87H162.912V18.791L163.848 17.985Z" fill="#F7F7F8"/>
<path d="M186 15H196" stroke="#F7F7F8" stroke-width="1.5" stroke-linecap="round" stroke-linejoin="round"/>
<circle cx="216" cy="15" r="15" fill="#404040"/>
<path d="M212.895 12.863C212.947 12.057 213.254 11.4287 213.818 10.978C214.39 10.5273 215.118 10.302 216.002 10.302C216.608 10.302 217.133 10.4103 217.575 10.627C218.017 10.8437 218.35 11.1383 218.576 11.511C218.801 11.8837 218.914 12.304 218.914 12.772C218.914 13.3093 218.771 13.7687 218.485 14.15C218.199 14.5313 217.856 14.787 217.458 14.917V14.969C217.969 15.125 218.368 15.411 218.654 15.827C218.94 16.2343 219.083 16.7587 219.083 17.4C219.083 17.9113 218.966 18.3663 218.732 18.765C218.498 19.1637 218.151 19.48 217.692 19.714C217.232 19.9393 216.682 20.052 216.041 20.052C215.105 20.052 214.333 19.8137 213.727 19.337C213.129 18.8517 212.808 18.1583 212.765 17.257H214.195C214.229 17.7163 214.407 18.0933 214.728 18.388C215.048 18.674 215.482 18.817 216.028 18.817C216.556 18.817 216.964 18.674 217.25 18.388C217.536 18.0933 217.679 17.7163 217.679 17.257C217.679 16.6503 217.484 16.2213 217.094 15.97C216.712 15.71 216.123 15.58 215.326 15.58H214.988V14.358H215.339C216.041 14.3493 216.574 14.2323 216.938 14.007C217.31 13.7817 217.497 13.4263 217.497 12.941C217.497 12.525 217.362 12.1957 217.094 11.953C216.825 11.7017 216.444 11.576 215.95 11.576C215.464 11.576 215.087 11.7017 214.819 11.953C214.55 12.1957 214.39 12.499 214.338 12.863H212.895Z" fill="#F7F7F8"/>
</svg>
